<?xml version="1.0" encoding="utf-8"?>
<!-- Generator: Adobe Illustrator 23.1.1, SVG Export Plug-In . SVG Version: 6.00 Build 0)  -->
<svg version="1.1" id="Layer_1" xmlns="http://www.w3.org/2000/svg" xmlns:xlink="http://www.w3.org/1999/xlink" x="0px" y="0px"
	 viewBox="0 0 64 64" style="enable-background:new 0 0 64 64;" xml:space="preserve">
<style type="text/css">
	.st0{opacity:0.5;fill:url(#SVGID_1_);}
	.st1{fill:url(#SVGID_2_);}
	.st2{opacity:0.5;fill:url(#SVGID_3_);}
</style>
<linearGradient id="SVGID_1_" gradientUnits="userSpaceOnUse" x1="33.8516" y1="43.1376" x2="33.8516" y2="31.4936" gradientTransform="matrix(1 0 0 -1 0 66)">
	<stop  offset="0.328" style="stop-color:#67AE8C"/>
	<stop  offset="1" style="stop-color:#0086AA"/>
</linearGradient>
<path class="st0" d="M39.6,30.7l-7.9-7.9l-3.6,3.6l7.9,7.9L39.6,30.7z"/>
<linearGradient id="SVGID_2_" gradientUnits="userSpaceOnUse" x1="32.0935" y1="65.9284" x2="32.0935" y2="0.3092" gradientTransform="matrix(1 0 0 -1 0 66)">
	<stop  offset="0.328" style="stop-color:#67AE8C"/>
	<stop  offset="1" style="stop-color:#0086AA"/>
</linearGradient>
<path class="st1" d="M60.6,2.3c-2.4-2.4-6.1-2.4-8.5-0.1L21.3,30.9C16,29.4,10.1,30.8,6,34.9c-4,4-3.1,9.2-2.3,13.9
	c0.7,4,1.2,7.5-1,9.7l-0.9,0.9l0.9,0.9c2.1,2.1,5.2,3.2,8.9,3.2c1.3,0,2.6-0.1,4-0.4c4.7-0.9,9.5-3.3,12.4-6.2
	c2.9-2.9,4.5-6.8,4.5-11c0-1.5-0.2-2.9-0.6-4.3l28.8-30.8C63,8.4,62.9,4.6,60.6,2.3z M31.9,24.3l6.7,6.7l-2.7,2.9l-6.9-6.8
	L31.9,24.3z M26.3,55.1c-2.6,2.6-6.9,4.7-11.2,5.5c-4.1,0.8-7.6,0.2-9.9-1.5c2.1-3,1.5-7,0.9-10.8c-0.7-4.5-1.4-8.7,1.7-11.8
	c5.1-5.1,13.4-5.1,18.5,0c2.5,2.5,3.8,5.8,3.8,9.3C30.1,49.3,28.7,52.6,26.3,55.1z M28,34.9c-1.3-1.3-2.7-2.2-4.2-3l3.5-3.3l7,7
	L31,39.1C30.2,37.5,29.2,36.1,28,34.9z M58.9,9.2l-18.7,20l-6.5-6.5l2.9-2.7l3.2,3.2l1.7-1.7l-3.1-3.1L53.7,3.9
	c1.5-1.4,3.7-1.3,5.2,0.1C60.3,5.4,60.3,7.7,58.9,9.2z"/>
<linearGradient id="SVGID_3_" gradientUnits="userSpaceOnUse" x1="18.27" y1="29.5234" x2="18.27" y2="13.0327" gradientTransform="matrix(1 0 0 -1 0 66)">
	<stop  offset="0.328" style="stop-color:#67AE8C"/>
	<stop  offset="1" style="stop-color:#0086AA"/>
</linearGradient>
<path class="st2" d="M10.3,39.1c3.4-3.4,9.8-3.7,13.5,0c3.4,3.4,3.4,10.1,0,13.5L10.3,39.1z"/>
</svg>
