<?xml version="1.0" encoding="utf-8"?>
<!-- Generator: Adobe Illustrator 23.1.1, SVG Export Plug-In . SVG Version: 6.00 Build 0)  -->
<svg version="1.1" id="Layer_1" xmlns="http://www.w3.org/2000/svg" xmlns:xlink="http://www.w3.org/1999/xlink" x="0px" y="0px"
	 viewBox="0 0 64 64" style="enable-background:new 0 0 64 64;" xml:space="preserve">
<style type="text/css">
	.st0{opacity:0.5;fill:url(#SVGID_1_);}
	.st1{fill:url(#SVGID_2_);}
	.st2{fill:url(#SVGID_3_);}
</style>
<linearGradient id="SVGID_1_" gradientUnits="userSpaceOnUse" x1="32" y1="41.6923" x2="32" y2="26.0025" gradientTransform="matrix(1 0 0 -1 0 66)">
	<stop  offset="0.328" style="stop-color:#67AE8C"/>
	<stop  offset="1" style="stop-color:#0086AA"/>
</linearGradient>
<path class="st0" d="M32,25.8c-3.4,0-6.2,2.8-6.2,6.2c0,3.4,2.8,6.2,6.2,6.2c3.4,0,6.2-2.8,6.2-6.2C38.2,28.6,35.4,25.8,32,25.8z"/>
<linearGradient id="SVGID_2_" gradientUnits="userSpaceOnUse" x1="32" y1="67.8462" x2="32" y2="0.1095" gradientTransform="matrix(1 0 0 -1 0 66)">
	<stop  offset="0.328" style="stop-color:#67AE8C"/>
	<stop  offset="1" style="stop-color:#0086AA"/>
</linearGradient>
<path class="st1" d="M32,0C14.4,0,0,14.4,0,32s14.4,32,32,32s32-14.4,32-32S49.6,0,32,0z M32,61.5C15.7,61.5,2.5,48.3,2.5,32
	S15.7,2.5,32,2.5S61.5,15.7,61.5,32S48.3,61.5,32,61.5z"/>
<linearGradient id="SVGID_3_" gradientUnits="userSpaceOnUse" x1="28.9234" y1="67.8462" x2="28.9234" y2="0.1095" gradientTransform="matrix(1 0 0 -1 0 66)">
	<stop  offset="0.328" style="stop-color:#67AE8C"/>
	<stop  offset="1" style="stop-color:#0086AA"/>
</linearGradient>
<path class="st2" d="M32,11.1c-4.4,0-8.6,1.4-12.2,3.9l1.4,2c3.1-2.3,6.9-3.5,10.8-3.5c10.2,0,18.5,8.3,18.5,18.5S42.2,50.5,32,50.5
	c-9.8,0-17.8-7.6-18.4-17.2h3.5c1,0,1.8-0.5,2.3-1.3c0.5-0.8,0.5-1.7,0.1-2.5L15,21.3c-0.5-1-1.6-1.6-2.7-1.6
	c-1.1,0-2.2,0.6-2.7,1.6l-4.4,8.2c-0.4,0.8-0.4,1.7,0.1,2.5c0.5,0.8,1.3,1.3,2.3,1.3h3.6c0.6,11,9.7,19.7,20.9,19.7
	c11.5,0,20.9-9.4,20.9-20.9S43.5,11.1,32,11.1z M7.4,30.7l4.4-8.2c0.2-0.3,0.4-0.3,0.5-0.3c0.1,0,0.4,0,0.5,0.3l4.4,8.2
	c0,0,0,0.1-0.2,0.1H7.6C7.4,30.8,7.4,30.7,7.4,30.7z"/>
</svg>
